<svg width="49" height="48" viewBox="0 0 49 48" fill="none" xmlns="http://www.w3.org/2000/svg">
<path d="M0.5 24C0.5 10.7452 11.2452 0 24.5 0C37.7548 0 48.5 10.7452 48.5 24C48.5 37.2548 37.7548 48 24.5 48C11.2452 48 0.5 37.2548 0.5 24Z" fill="#222222"/>
<g clip-path="url(#clip0_2238_546)">
<path d="M34.4399 19.8771C34.3912 18.8126 34.2221 18.0857 33.9749 17.4497C33.7239 16.7824 33.3303 16.178 32.8215 15.6785C32.3221 15.1697 31.7176 14.7759 31.0503 14.5247C30.4142 14.2777 29.6874 14.1088 28.6229 14.0604C27.5565 14.0116 27.2158 14 24.5 14C21.7842 14 21.4435 14.0116 20.3771 14.0601C19.3126 14.1088 18.5858 14.2779 17.9497 14.5251C17.2824 14.7761 16.678 15.1697 16.1785 15.6785C15.6697 16.1779 15.2759 16.7823 15.0247 17.4496C14.7777 18.0857 14.6088 18.8126 14.5604 19.8769C14.5116 20.9435 14.5 21.2841 14.5 23.9998C14.5 26.7158 14.5116 27.0565 14.5604 28.1229C14.6089 29.1872 14.778 29.9142 15.0252 30.5503C15.2762 31.2174 15.6699 31.822 16.1786 32.3214C16.678 32.8301 17.2826 33.2238 17.9499 33.4748C18.5858 33.7221 19.3128 33.8911 20.3772 33.9397C21.4438 33.9884 21.7844 33.9998 24.5002 33.9998C27.2159 33.9998 27.5566 33.9884 28.6231 33.9397C29.6875 33.8911 30.4143 33.7221 31.0504 33.4748C32.3937 32.9554 33.4555 31.8935 33.9749 30.5503C34.2223 29.9142 34.3912 29.1872 34.4399 28.1229C34.4884 27.0563 34.5 26.7158 34.5 24C34.5 21.2841 34.4884 20.9435 34.4399 19.8771ZM32.6398 28.041C32.5954 29.016 32.4324 29.5455 32.2956 29.8978C31.9591 30.77 31.2699 31.4593 30.3977 31.7957C30.0453 31.9326 29.5159 32.0956 28.5408 32.14C27.4866 32.1882 27.1703 32.1982 24.5 32.1982C21.8296 32.1982 21.5134 32.1882 20.459 32.14C19.4841 32.0956 18.9547 31.9326 18.6022 31.7957C18.1679 31.6353 17.775 31.3798 17.4524 31.0476C17.1202 30.725 16.8647 30.3322 16.7043 29.8978C16.5674 29.5455 16.4044 29.016 16.36 28.041C16.312 26.9866 16.3018 26.6703 16.3018 24.0002C16.3018 21.3299 16.312 21.0137 16.36 19.9592C16.4046 18.9841 16.5674 18.4547 16.7043 18.1023C16.8647 17.6679 17.1204 17.275 17.4524 16.9524C17.775 16.6202 18.1679 16.3647 18.6023 16.2044C18.9547 16.0674 19.4841 15.9046 20.4592 15.86C21.5135 15.812 21.8299 15.8018 24.5 15.8018H24.4998C27.17 15.8018 27.4863 15.812 28.5408 15.8602C29.5159 15.9046 30.0452 16.0676 30.3977 16.2044C30.8319 16.3648 31.2249 16.6204 31.5474 16.9524C31.8796 17.275 32.1352 17.6679 32.2954 18.1023C32.4324 18.4547 32.5954 18.9841 32.6398 19.9592C32.6879 21.0135 32.6981 21.3299 32.6981 24C32.6981 26.6703 32.688 26.9865 32.6398 28.041Z" fill="white"/>
<path d="M24.4998 18.8647C21.6638 18.8647 19.3647 21.1639 19.3647 23.9999C19.3647 26.8359 21.6638 29.135 24.4998 29.135C27.3359 29.135 29.635 26.8359 29.635 23.9999C29.635 21.1639 27.3359 18.8647 24.4998 18.8647ZM24.4998 27.3332C22.659 27.3331 21.1665 25.8408 21.1667 23.9998C21.1667 22.159 22.659 20.6665 24.4999 20.6665C26.3409 20.6667 27.8332 22.159 27.8332 23.9998C27.8332 25.8408 26.3408 27.3332 24.4998 27.3332Z" fill="white"/>
<path d="M31.0378 18.662C31.0378 19.3247 30.5005 19.862 29.8378 19.862C29.175 19.862 28.6377 19.3247 28.6377 18.662C28.6377 17.9992 29.175 17.4619 29.8378 17.4619C30.5005 17.4619 31.0378 17.9992 31.0378 18.662Z" fill="white"/>
</g>
<path opacity="0.5" d="M37.5909 15.1818L37.6591 13.3068L36.0739 14.3125L35.6648 13.5966L37.3352 12.7273L35.6648 11.858L36.0739 11.142L37.6591 12.1477L37.5909 10.2727H38.4091L38.3409 12.1477L39.9261 11.142L40.3352 11.858L38.6648 12.7273L40.3352 13.5966L39.9261 14.3125L38.3409 13.3068L38.4091 15.1818H37.5909Z" fill="white"/>
<defs>
<clipPath id="clip0_2238_546">
<rect width="20" height="20" fill="white" transform="translate(14.5 14)"/>
</clipPath>
</defs>
</svg>
