<svg width="149" height="64" viewBox="0 0 149 64" fill="none" xmlns="http://www.w3.org/2000/svg">
<path d="M41.1882 0.139508H43.1251L44.0935 4.79692L45.2149 0.139508H46.9478L48.2017 4.81838L49.2415 0.139508H50.9745L49.1395 7.65146H47.3046L46.0304 2.80088L44.8581 7.65146H43.0232L41.1882 0.139508Z" fill="#222222"/>
<path d="M51.8919 0.139508H57.0909V1.62043H53.7268V3.09063H56.785V4.48571H53.7268V6.17053H57.0909V7.65146H51.8919V0.139508Z" fill="#222222"/>
<path d="M58.2632 0.139508H61.6782C62.5141 0.139508 63.1223 0.314787 63.5029 0.665344C63.8835 1.00875 64.0737 1.50239 64.0737 2.14627C64.0737 2.5326 63.9786 2.86527 63.7883 3.14429C63.598 3.41615 63.3398 3.61289 63.0136 3.73451C63.4349 3.83467 63.7679 4.03857 64.0126 4.3462C64.2572 4.64668 64.3796 5.04016 64.3796 5.52665C64.3796 6.18484 64.1723 6.70352 63.7577 7.08269C63.35 7.46187 62.6908 7.65146 61.7801 7.65146H58.2632V0.139508ZM61.3723 6.17053C61.8141 6.17053 62.1199 6.10256 62.2898 5.96663C62.4597 5.82355 62.5447 5.60534 62.5447 5.31202C62.5447 5.0187 62.4563 4.80049 62.2796 4.65741C62.1097 4.51432 61.8005 4.44278 61.352 4.44278H60.0981V6.17053H61.3723ZM61.2296 3.13356C61.6238 3.13356 61.8888 3.06917 62.0248 2.94039C62.1675 2.80446 62.2388 2.61487 62.2388 2.37163C62.2388 2.12123 62.1675 1.93522 62.0248 1.8136C61.8888 1.68482 61.6272 1.62043 61.2398 1.62043H60.0981V3.13356H61.2296Z" fill="#222222"/>
<path d="M71.9953 6.21345H69.6099L69.1206 7.65146H67.3876L69.9871 0.139508H71.822L74.4214 7.65146H72.4846L71.9953 6.21345ZM70.1298 4.73253H71.4754L70.8026 2.50041L70.1298 4.73253Z" fill="#222222"/>
<path d="M78.1976 7.79096C77.7083 7.79096 77.2564 7.71942 76.8418 7.57634C76.4272 7.43325 76.0671 7.20789 75.7612 6.90026C75.4554 6.58547 75.2142 6.18484 75.0375 5.69835C74.8676 5.21186 74.7826 4.62879 74.7826 3.94914V3.73451C74.7826 3.08348 74.871 2.52545 75.0477 2.06042C75.2244 1.58824 75.4656 1.20191 75.7714 0.901434C76.0773 0.593802 76.434 0.368443 76.8418 0.225359C77.2496 0.0751196 77.6845 0 78.1466 0C78.5544 0 78.935 0.0500796 79.2884 0.150239C79.6418 0.250398 79.9544 0.407792 80.2262 0.622419C80.498 0.829892 80.7223 1.09818 80.899 1.42727C81.0825 1.75637 81.2014 2.14985 81.2558 2.60772H79.3597C79.3121 2.4074 79.2442 2.24285 79.1558 2.11408C79.0675 1.9853 78.9689 1.88514 78.8602 1.8136C78.7515 1.7349 78.6359 1.68125 78.5136 1.65263C78.3913 1.62401 78.269 1.6097 78.1466 1.6097C77.9292 1.6097 77.7287 1.64547 77.5452 1.71702C77.3685 1.78856 77.2156 1.9066 77.0865 2.07115C76.9573 2.2357 76.8554 2.4539 76.7806 2.72576C76.7127 2.99763 76.6787 3.33387 76.6787 3.73451V3.94914C76.6787 4.34978 76.7161 4.69318 76.7908 4.97935C76.8656 5.25836 76.9675 5.4873 77.0967 5.66616C77.2326 5.84501 77.3923 5.97737 77.5758 6.06322C77.7661 6.14191 77.9733 6.18126 78.1976 6.18126C78.3811 6.18126 78.5612 6.15622 78.7379 6.10614C78.9214 6.05606 79.0811 5.97736 79.217 5.87005C79.3597 5.76274 79.4753 5.63038 79.5636 5.47299C79.6519 5.30844 79.6995 5.1117 79.7063 4.88277H78.4015V3.65939H81.4087V4.16377C81.4087 4.80765 81.3272 5.35852 81.1641 5.81639C81.0078 6.27427 80.7869 6.64986 80.5014 6.94319C80.216 7.23651 79.8762 7.45114 79.482 7.58707C79.0947 7.723 78.6665 7.79096 78.1976 7.79096Z" fill="#222222"/>
<path d="M82.5336 0.139508H87.7326V1.62043H84.3686V3.09063H87.4268V4.48571H84.3686V6.17053H87.7326V7.65146H82.5336V0.139508Z" fill="#222222"/>
<path d="M88.9049 0.139508H90.5257L93.2883 4.32474V0.139508H95.2252V7.65146H93.4922L90.7398 3.46623V7.65146H88.9049V0.139508Z" fill="#222222"/>
<path d="M99.7081 7.79096C99.2188 7.79096 98.7703 7.723 98.3625 7.58707C97.9548 7.44398 97.6048 7.21862 97.3125 6.91099C97.0271 6.60336 96.8028 6.2063 96.6397 5.71981C96.4766 5.23332 96.3951 4.63952 96.3951 3.93841V3.73451C96.3951 3.07632 96.48 2.51114 96.6499 2.03896C96.8198 1.56678 97.0543 1.18045 97.3533 0.879971C97.6523 0.579493 98.0023 0.357712 98.4033 0.214628C98.8111 0.0715425 99.246 0 99.7081 0C100.123 0 100.51 0.0500796 100.87 0.150239C101.237 0.250398 101.557 0.407792 101.828 0.622419C102.107 0.837046 102.331 1.11606 102.501 1.45946C102.678 1.80287 102.783 2.22139 102.817 2.71503H100.921C100.887 2.51471 100.833 2.34659 100.758 2.21066C100.683 2.06757 100.592 1.95311 100.483 1.86726C100.374 1.77425 100.252 1.70986 100.116 1.67409C99.9868 1.63117 99.8508 1.6097 99.7081 1.6097C99.5042 1.6097 99.314 1.64905 99.1373 1.72775C98.9674 1.79929 98.8178 1.92091 98.6887 2.09261C98.5664 2.25716 98.4678 2.47537 98.3931 2.74723C98.3251 3.01909 98.2912 3.34818 98.2912 3.73451V3.95987C98.2912 4.37482 98.3285 4.72537 98.4033 5.01154C98.4848 5.29056 98.5902 5.51949 98.7193 5.69835C98.8484 5.87005 98.9979 5.99525 99.1678 6.07395C99.3377 6.14549 99.5178 6.18126 99.7081 6.18126C100.055 6.18126 100.33 6.09541 100.534 5.92371C100.745 5.74485 100.874 5.46226 100.921 5.07593H102.817C102.79 5.57673 102.692 5.99883 102.522 6.34223C102.359 6.68563 102.138 6.96465 101.859 7.17928C101.587 7.3939 101.268 7.5513 100.901 7.65146C100.534 7.74446 100.136 7.79096 99.7081 7.79096Z" fill="#222222"/>
<path d="M105.727 4.83984L103.077 0.139508H105.197L106.685 2.92966L108.092 0.139508H110.008L107.562 4.83984V7.65146H105.727V4.83984Z" fill="#222222"/>
<path d="M86.9153 52.4194C87.3726 51.9016 88.239 52.2537 88.0338 52.9155C86.5094 57.8289 82.2001 61.5013 76.9699 62.0562C76.6488 62.7444 76.2159 63.3699 75.6952 63.9077C75.5758 64.0308 75.381 64.0307 75.2616 63.9077C74.7341 63.3628 74.2962 62.7277 73.9738 62.0288C68.8505 61.39 64.6484 57.7546 63.147 52.9155C62.9417 52.2537 63.8068 51.9017 64.2642 52.4194C66.6209 55.0889 69.893 56.9193 73.5832 57.4116C73.8861 56.2797 74.4729 55.2654 75.2616 54.4507C75.3811 54.3274 75.5758 54.3273 75.6952 54.4507C76.4902 55.272 77.0794 56.2961 77.3801 57.439C81.1588 56.9906 84.5125 55.1409 86.9153 52.4194Z" fill="#222222"/>
<path fill-rule="evenodd" clip-rule="evenodd" d="M75.5897 15.9558C84.554 15.9558 91.8215 23.4794 91.8215 32.9688C91.8214 42.4581 84.5538 49.9806 75.5897 49.9806C66.6258 49.9804 59.3594 42.458 59.3592 32.9688C59.3592 23.4796 66.6256 15.956 75.5897 15.9558ZM75.5897 22.5014C70.5062 22.5016 65.8514 26.79 65.8514 32.9688C65.8516 39.1475 70.5063 43.4348 75.5897 43.435C80.6733 43.435 85.3292 39.1477 85.3293 32.9688C85.3293 26.9593 80.6734 22.5014 75.5897 22.5014Z" fill="#222222"/>
<path fill-rule="evenodd" clip-rule="evenodd" d="M26.406 48.4428H20.0362V42.073H13.6664C10.1485 42.0732 7.29657 44.9249 7.29657 48.4428H0.926758C0.926758 44.6376 2.59554 41.2225 5.24057 38.8881C2.5955 36.5538 0.926931 33.1385 0.926758 29.3334C0.926758 22.2974 6.63045 16.5927 13.6664 16.5925H26.406V48.4428ZM13.6664 22.9623C10.1485 22.9625 7.29657 25.8155 7.29657 29.3334C7.29689 32.8511 10.1487 35.703 13.6664 35.7032H20.0362V22.9623H13.6664Z" fill="#222222"/>
<path d="M38.5102 29.3334H40.4204C45.6974 29.3334 49.9751 25.0545 49.9751 19.7774V16.5925H56.3449V19.7774C56.3449 24.7103 54.1022 29.1194 50.5805 32.0405C54.8266 34.9007 57.6196 39.7533 57.6196 45.2579V48.4428H51.2498V45.2579C51.2498 39.9811 46.9719 35.7035 41.6951 35.7032H38.5102V48.4428H32.1391V16.5925H38.5102V29.3334Z" fill="#222222"/>
<path fill-rule="evenodd" clip-rule="evenodd" d="M108.898 16.5925C115.934 16.5928 121.638 22.2975 121.638 29.3334C121.638 36.369 115.934 42.0727 108.898 42.073H102.527V48.4428H96.1575V16.5925H108.898ZM102.527 35.7032H108.898C112.416 35.7029 115.268 32.851 115.268 29.3334C115.268 25.8156 112.416 22.9626 108.898 22.9623H102.527V35.7032Z" fill="#222222"/>
<path fill-rule="evenodd" clip-rule="evenodd" d="M132.148 29.3334H138.518L138.764 29.336C143.927 29.4668 148.073 33.6935 148.073 38.8881C148.073 44.165 143.795 48.4428 138.518 48.4428H125.779V16.5925H132.148V29.3334ZM132.148 42.073H138.518C140.277 42.073 141.703 40.6469 141.703 38.8881C141.703 37.1292 140.277 35.7033 138.518 35.7032H132.148V42.073Z" fill="#222222"/>
</svg>
