<svg width="49" height="48" viewBox="0 0 49 48" fill="none" xmlns="http://www.w3.org/2000/svg">
<path d="M0.5 24C0.5 10.7452 11.2452 0 24.5 0C37.7548 0 48.5 10.7452 48.5 24C48.5 37.2548 37.7548 48 24.5 48C11.2452 48 0.5 37.2548 0.5 24Z" fill="#222222"/>
<path d="M31.7208 17.0976L16.9458 22.7951C15.9375 23.2001 15.9433 23.7626 16.7608 24.0134L20.5542 25.1968L29.3308 19.6593C29.7458 19.4068 30.125 19.5426 29.8133 19.8193L22.7025 26.2368H22.7008L22.7025 26.2376L22.4408 30.1476C22.8242 30.1476 22.9933 29.9718 23.2083 29.7643L25.0508 27.9726L28.8833 30.8034C29.59 31.1926 30.0975 30.9926 30.2733 30.1493L32.7892 18.2926C33.0467 17.2601 32.395 16.7926 31.7208 17.0976Z" fill="white"/>
</svg>
