<svg width="49" height="48" viewBox="0 0 49 48" fill="none" xmlns="http://www.w3.org/2000/svg">
<path d="M0.5 24C0.5 10.7452 11.2452 0 24.5 0C37.7548 0 48.5 10.7452 48.5 24C48.5 37.2548 37.7548 48 24.5 48C11.2452 48 0.5 37.2548 0.5 24Z" fill="#222222"/>
<g clip-path="url(#clip0_2003_1208)">
<path fill-rule="evenodd" clip-rule="evenodd" d="M33.7394 18.7789C33.874 18.3299 33.7394 18 33.0986 18H30.9798C30.441 18 30.1927 18.285 30.058 18.5992C30.058 18.5992 28.9805 21.2256 27.4541 22.9316C26.9602 23.4254 26.7357 23.5826 26.4664 23.5826C26.3317 23.5826 26.1367 23.4254 26.1367 22.9765V18.7789C26.1367 18.2401 25.9804 18 25.5314 18H22.2018C21.8651 18 21.6626 18.25 21.6626 18.487C21.6626 18.9977 22.4258 19.1155 22.5045 20.5522V23.6724C22.5045 24.3565 22.3809 24.4805 22.1116 24.4805C21.3933 24.4805 19.646 21.8424 18.6097 18.8237C18.4067 18.237 18.203 18 17.6615 18H15.5426C14.9372 18 14.8162 18.285 14.8162 18.5992C14.8162 19.1604 15.5345 21.9439 18.1608 25.6253C19.9117 28.1394 22.3786 29.5022 24.6233 29.5022C25.9701 29.5022 26.1368 29.1995 26.1368 28.6781V26.778C26.1368 26.1726 26.2644 26.0518 26.6909 26.0518C27.0051 26.0518 27.5438 26.2089 28.8009 27.4211C30.2376 28.8577 30.4744 29.5022 31.2825 29.5022H33.4013C34.0067 29.5022 34.3094 29.1995 34.1348 28.6022C33.9437 28.0068 33.2578 27.1431 32.3476 26.1191C31.8538 25.5355 31.113 24.907 30.8885 24.5927C30.5743 24.1887 30.6641 24.0091 30.8885 23.6499C30.8885 23.6499 33.47 20.0134 33.7394 18.7789Z" fill="white"/>
</g>
<defs>
<clipPath id="clip0_2003_1208">
<rect width="20" height="20" fill="white" transform="translate(14.5 14)"/>
</clipPath>
</defs>
</svg>
